<svg width="78" height="44" viewBox="0 0 78 44" fill="none" xmlns="http://www.w3.org/2000/svg">
<path d="M35.3531 40.7896C31.8433 42.1176 27.8592 42.7816 23.4009 42.7816C8.79252 42.7816 1.48836 35.7146 1.48836 21.5806C1.48836 8.20544 8.79252 1.51786 23.4009 1.51786C27.8592 1.51786 31.8433 2.18187 35.3531 3.5099V10.3398C31.8433 8.82202 28.049 8.06315 23.97 8.06315C14.1995 8.06315 9.31425 12.569 9.31425 21.5806C9.31425 31.3511 14.1995 36.2364 23.97 36.2364C28.049 36.2364 31.8433 35.4775 35.3531 33.9597V40.7896ZM44.1807 1.80244V42.4971H36.6394V1.80244H44.1807ZM72.8093 1.80244L55.45 20.7838L74.6306 42.4971H64.1866L48.4494 23.4873V18.5925L63.5889 1.80244H72.8093Z" fill="white"/>
<path d="M35.3531 40.7896L35.7778 41.9119L36.5531 41.6186V40.7896H35.3531ZM35.3531 3.5099H36.5531V2.68093L35.7778 2.38756L35.3531 3.5099ZM35.3531 10.3398L34.8768 11.4412L36.5531 12.1661V10.3398H35.3531ZM35.3531 33.9597H36.5531V32.1334L34.8768 32.8583L35.3531 33.9597ZM34.9285 39.6673C31.5772 40.9353 27.7408 41.5816 23.4009 41.5816V43.9816C27.9777 43.9816 32.1094 43.3 35.7778 41.9119L34.9285 39.6673ZM23.4009 41.5816C16.2719 41.5816 11.1474 39.8568 7.80089 36.619C4.46174 33.3882 2.68836 28.4524 2.68836 21.5806H0.288357C0.288357 28.8428 2.16705 34.5075 6.13207 38.3438C10.0897 42.173 15.9215 43.9816 23.4009 43.9816V41.5816ZM2.68836 21.5806C2.68836 15.1066 4.45121 10.4635 7.77683 7.4186C11.1225 4.35536 16.2567 2.71786 23.4009 2.71786V0.317857C15.9366 0.317857 10.1146 2.02414 6.15613 5.64848C2.17759 9.29117 0.288357 14.6795 0.288357 21.5806H2.68836ZM23.4009 2.71786C27.7408 2.71786 31.5772 3.36422 34.9285 4.63225L35.7778 2.38756C32.1094 0.999526 27.9777 0.317857 23.4009 0.317857V2.71786ZM34.1531 3.5099V10.3398H36.5531V3.5099H34.1531ZM35.8294 9.23834C32.1594 7.65131 28.2017 6.86315 23.97 6.86315V9.26315C27.8962 9.26315 31.5273 9.99274 34.8768 11.4412L35.8294 9.23834ZM23.97 6.86315C18.9228 6.86315 14.9136 8.02493 12.1646 10.5604C9.39726 13.1128 8.11425 16.8638 8.11425 21.5806H10.5142C10.5142 17.2858 11.6739 14.278 13.7918 12.3246C15.928 10.3543 19.2467 9.26315 23.97 9.26315V6.86315ZM8.11425 21.5806C8.11425 26.6508 9.38262 30.6739 12.1297 33.4209C14.8767 36.168 18.8998 37.4364 23.97 37.4364V35.0364C19.2697 35.0364 15.9649 33.8621 13.8267 31.7239C11.6885 29.5857 10.5142 26.2809 10.5142 21.5806H8.11425ZM23.97 37.4364C28.2017 37.4364 32.1594 36.6482 35.8294 35.0612L34.8768 32.8583C31.5273 34.3068 27.8962 35.0364 23.97 35.0364V37.4364ZM34.1531 33.9597V40.7896H36.5531V33.9597H34.1531ZM44.1807 1.80244H45.3807V0.602435H44.1807V1.80244ZM44.1807 42.4971V43.6971H45.3807V42.4971H44.1807ZM36.6394 42.4971H35.4394V43.6971H36.6394V42.4971ZM36.6394 1.80244V0.602435H35.4394V1.80244H36.6394ZM72.8093 1.80244L73.6948 2.61228L75.5329 0.602435H72.8093V1.80244ZM55.45 20.7838L54.5645 19.9739L53.8366 20.7699L54.5507 21.5782L55.45 20.7838ZM74.6306 42.4971V43.6971H77.2917L75.5299 41.7026L74.6306 42.4971ZM64.1866 42.4971L63.2622 43.2623L63.6221 43.6971H64.1866V42.4971ZM48.4494 23.4873H47.2494V23.9195L47.525 24.2525L48.4494 23.4873ZM48.4494 18.5925L47.5582 17.7889L47.2494 18.1314V18.5925H48.4494ZM63.5889 1.80244V0.602435H63.0552L62.6977 0.998843L63.5889 1.80244ZM42.9807 1.80244V42.4971H45.3807V1.80244H42.9807ZM44.1807 41.2971H36.6394V43.6971H44.1807V41.2971ZM37.8394 42.4971V1.80244H35.4394V42.4971H37.8394ZM36.6394 3.00244H44.1807V0.602435H36.6394V3.00244ZM71.9237 0.992588L54.5645 19.9739L56.3355 21.5936L73.6948 2.61228L71.9237 0.992588ZM54.5507 21.5782L73.7312 43.2915L75.5299 41.7026L56.3494 19.9893L54.5507 21.5782ZM74.6306 41.2971H64.1866V43.6971H74.6306V41.2971ZM65.1109 41.7318L49.3738 22.722L47.525 24.2525L63.2622 43.2623L65.1109 41.7318ZM49.6494 23.4873V18.5925H47.2494V23.4873H49.6494ZM49.3406 19.3961L64.4801 2.60603L62.6977 0.998843L47.5582 17.7889L49.3406 19.3961ZM63.5889 3.00244H72.8093V0.602435H63.5889V3.00244Z" fill="#303443"/>
</svg>
