<svg width="570" height="550" viewBox="0 0 570 550" fill="none" xmlns="http://www.w3.org/2000/svg">
<g clipPath="url(#clip0)">
<rect x="569.976" y="549.541" width="569.975" height="549.964" transform="rotate(-180 569.976 549.541)" fill="#2E4057"/>
<path opacity="0.8" d="M570 -0.42218H0.0246582V549.577H570V-0.42218Z" fill="url(#paint0_linear)"/>
<path d="M9.31266 463.392L8.3723 465.051L6.71277 464.111C6.58421 464.038 6.43197 464.019 6.28955 464.059C6.14714 464.098 6.0262 464.192 5.95335 464.321C5.8805 464.449 5.86171 464.602 5.9011 464.744C5.94049 464.886 6.03485 465.007 6.16341 465.08L7.82294 466.021L6.88257 467.68C6.80972 467.809 6.79092 467.961 6.83032 468.103C6.86971 468.246 6.96407 468.367 7.09263 468.44C7.22119 468.512 7.37343 468.531 7.51585 468.492C7.65827 468.452 7.7792 468.358 7.85205 468.229L8.79242 466.57L10.4519 467.51C10.5805 467.583 10.7327 467.602 10.8752 467.563C11.0176 467.523 11.1385 467.429 11.2114 467.3C11.2842 467.172 11.303 467.019 11.2636 466.877C11.2242 466.735 11.1299 466.614 11.0013 466.541L9.34178 465.6L10.2821 463.941C10.355 463.812 10.3738 463.66 10.3344 463.518C10.295 463.375 10.2006 463.254 10.0721 463.182C9.94352 463.109 9.79129 463.09 9.64887 463.129C9.50645 463.169 9.38551 463.263 9.31266 463.392Z" fill="white" fill-opacity="0.5"/>
<path d="M24.8911 131.768L23.0015 131.508L23.2621 129.618C23.2823 129.472 23.2435 129.323 23.1543 129.205C23.065 129.088 22.9327 129.01 22.7863 128.99C22.6399 128.97 22.4915 129.009 22.3737 129.098C22.2559 129.187 22.1784 129.319 22.1582 129.466L21.8977 131.355L20.0081 131.095C19.8617 131.075 19.7133 131.113 19.5955 131.203C19.4778 131.292 19.4003 131.424 19.3801 131.571C19.3599 131.717 19.3987 131.865 19.4879 131.983C19.5771 132.101 19.7095 132.178 19.8559 132.199L21.7455 132.459L21.4849 134.349C21.4647 134.495 21.5035 134.644 21.5927 134.761C21.682 134.879 21.8143 134.957 21.9607 134.977C22.1071 134.997 22.2555 134.958 22.3733 134.869C22.4911 134.78 22.5686 134.647 22.5888 134.501L22.8493 132.611L24.7389 132.872C24.8853 132.892 25.0337 132.853 25.1514 132.764C25.2692 132.675 25.3467 132.543 25.3669 132.396C25.3871 132.25 25.3483 132.101 25.2591 131.984C25.1698 131.866 25.0375 131.788 24.8911 131.768Z" fill="white" fill-opacity="0.5"/>
<path d="M92.0276 248.029L90.1834 248.516L89.6963 246.672C89.6585 246.529 89.5656 246.407 89.4379 246.333C89.3102 246.259 89.1582 246.238 89.0153 246.276C88.8724 246.314 88.7504 246.406 88.6761 246.534C88.6017 246.662 88.5812 246.814 88.6189 246.957L89.1061 248.801L87.2619 249.288C87.119 249.326 86.997 249.419 86.9227 249.547C86.8483 249.674 86.8278 249.826 86.8655 249.969C86.9032 250.112 86.9962 250.234 87.1239 250.308C87.2516 250.383 87.4036 250.403 87.5465 250.365L89.3907 249.878L89.8778 251.722C89.9156 251.865 90.0085 251.987 90.1362 252.062C90.2639 252.136 90.4159 252.157 90.5588 252.119C90.7017 252.081 90.8237 251.988 90.898 251.86C90.9724 251.733 90.9929 251.581 90.9552 251.438L90.468 249.594L92.3122 249.107C92.4551 249.069 92.5771 248.976 92.6514 248.848C92.7258 248.72 92.7463 248.568 92.7086 248.426C92.6708 248.283 92.5779 248.161 92.4502 248.086C92.3225 248.012 92.1705 247.991 92.0276 248.029Z" fill="white" fill-opacity="0.5"/>
<path d="M56.3009 282.153C56.3009 282.776 56.1161 283.385 55.7699 283.903C55.4237 284.422 54.9316 284.825 54.3559 285.064C53.7802 285.302 53.1468 285.365 52.5356 285.243C51.9244 285.122 51.3631 284.822 50.9224 284.381C50.4818 283.94 50.1817 283.379 50.0602 282.768C49.9386 282.157 50.001 281.523 50.2395 280.947C50.4779 280.372 50.8817 279.88 51.3999 279.533C51.918 279.187 52.5271 279.002 53.1502 279.002C53.9858 279.002 54.7872 279.334 55.3781 279.925C55.9689 280.516 56.3009 281.318 56.3009 282.153ZM50.7092 282.153C50.7092 282.636 50.8524 283.108 51.1206 283.509C51.3888 283.911 51.7701 284.224 52.2161 284.408C52.6622 284.593 53.153 284.641 53.6265 284.547C54.1 284.453 54.5349 284.221 54.8763 283.879C55.2177 283.538 55.4502 283.103 55.5444 282.629C55.6385 282.156 55.5902 281.665 55.4055 281.219C55.2207 280.773 54.9078 280.392 54.5064 280.123C54.105 279.855 53.633 279.712 53.1502 279.712C52.5034 279.714 51.8836 279.972 51.4263 280.429C50.9689 280.886 50.7111 281.506 50.7092 282.153Z" fill="white" fill-opacity="0.5"/>
<path d="M260.7 208.73C260.7 209.353 260.515 209.963 260.169 210.481C259.823 210.999 259.331 211.403 258.755 211.641C258.18 211.88 257.546 211.942 256.935 211.82C256.324 211.699 255.762 211.399 255.322 210.958C254.881 210.518 254.581 209.956 254.46 209.345C254.338 208.734 254.4 208.1 254.639 207.525C254.877 206.949 255.281 206.457 255.799 206.111C256.317 205.764 256.927 205.58 257.55 205.58C258.385 205.58 259.187 205.912 259.777 206.502C260.368 207.093 260.7 207.895 260.7 208.73ZM255.109 208.73C255.109 209.213 255.252 209.685 255.52 210.086C255.788 210.488 256.169 210.801 256.616 210.986C257.062 211.17 257.552 211.219 258.026 211.124C258.499 211.03 258.934 210.798 259.276 210.456C259.617 210.115 259.85 209.68 259.944 209.207C260.038 208.733 259.99 208.242 259.805 207.796C259.62 207.35 259.307 206.969 258.906 206.701C258.504 206.432 258.032 206.289 257.55 206.289C256.903 206.291 256.283 206.549 255.826 207.006C255.368 207.464 255.111 208.083 255.109 208.73Z" fill="white" fill-opacity="0.5"/>
<path d="M568.386 486.304L570.276 486.565L570.015 488.455C569.995 488.601 570.034 488.749 570.123 488.867C570.212 488.985 570.345 489.062 570.491 489.083C570.637 489.103 570.786 489.064 570.904 488.975C571.021 488.886 571.099 488.753 571.119 488.607L571.38 486.717L573.269 486.978C573.415 486.998 573.564 486.959 573.682 486.87C573.799 486.781 573.877 486.648 573.897 486.502C573.917 486.356 573.879 486.207 573.789 486.089C573.7 485.972 573.568 485.894 573.421 485.874L571.532 485.613L571.792 483.724C571.813 483.577 571.774 483.429 571.684 483.311C571.595 483.193 571.463 483.116 571.317 483.096C571.17 483.076 571.022 483.114 570.904 483.204C570.786 483.293 570.709 483.425 570.688 483.572L570.428 485.461L568.538 485.201C568.392 485.18 568.244 485.219 568.126 485.308C568.008 485.398 567.93 485.53 567.91 485.676C567.89 485.823 567.929 485.971 568.018 486.089C568.107 486.207 568.24 486.284 568.386 486.304Z" fill="white" fill-opacity="0.5"/>
<path d="M501.25 370.043L503.094 369.556L503.581 371.4C503.619 371.543 503.712 371.665 503.839 371.74C503.967 371.814 504.119 371.835 504.262 371.797C504.405 371.759 504.527 371.666 504.601 371.538C504.676 371.411 504.696 371.259 504.658 371.116L504.171 369.272L506.015 368.785C506.158 368.747 506.28 368.654 506.355 368.526C506.429 368.398 506.45 368.246 506.412 368.104C506.374 367.961 506.281 367.839 506.153 367.764C506.026 367.69 505.874 367.669 505.731 367.707L503.887 368.194L503.4 366.35C503.362 366.207 503.269 366.085 503.141 366.011C503.013 365.937 502.861 365.916 502.719 365.954C502.576 365.992 502.454 366.084 502.379 366.212C502.305 366.34 502.284 366.492 502.322 366.635L502.809 368.479L500.965 368.966C500.822 369.004 500.7 369.097 500.626 369.224C500.552 369.352 500.531 369.504 500.569 369.647C500.607 369.79 500.699 369.912 500.827 369.986C500.955 370.061 501.107 370.081 501.25 370.043Z" fill="white" fill-opacity="0.5"/>
<path d="M424.14 53.2147C424.14 52.5916 424.325 51.9824 424.671 51.4643C425.017 50.9462 425.509 50.5424 426.085 50.3039C426.66 50.0655 427.294 50.0031 427.905 50.1246C428.516 50.2462 429.078 50.5463 429.518 50.9869C429.959 51.4275 430.259 51.9889 430.381 52.6C430.502 53.2112 430.44 53.8447 430.201 54.4204C429.963 54.9961 429.559 55.4881 429.041 55.8343C428.523 56.1805 427.914 56.3653 427.29 56.3653C426.455 56.3653 425.653 56.0334 425.063 55.4425C424.472 54.8517 424.14 54.0503 424.14 53.2147ZM429.731 53.2147C429.731 52.7319 429.588 52.26 429.32 51.8585C429.052 51.4571 428.671 51.1443 428.225 50.9595C427.779 50.7747 427.288 50.7264 426.814 50.8206C426.341 50.9148 425.906 51.1473 425.564 51.4886C425.223 51.83 424.99 52.265 424.896 52.7385C424.802 53.212 424.85 53.7028 425.035 54.1488C425.22 54.5949 425.533 54.9761 425.934 55.2443C426.336 55.5126 426.808 55.6557 427.29 55.6557C427.937 55.6538 428.557 55.3961 429.014 54.9387C429.472 54.4813 429.73 53.8615 429.731 53.2147Z" fill="white" fill-opacity="0.5"/>
<path d="M354.619 40.9168C354.619 40.6016 354.712 40.2935 354.887 40.0314C355.062 39.7694 355.311 39.5652 355.602 39.4445C355.894 39.3239 356.214 39.2924 356.523 39.3539C356.832 39.4153 357.116 39.5671 357.339 39.79C357.562 40.0128 357.714 40.2968 357.775 40.6059C357.837 40.915 357.805 41.2354 357.684 41.5266C357.564 41.8177 357.36 42.0666 357.098 42.2417C356.836 42.4168 356.527 42.5103 356.212 42.5103C355.79 42.5103 355.384 42.3424 355.085 42.0435C354.787 41.7447 354.619 41.3394 354.619 40.9168ZM357.447 40.9168C357.447 40.6726 357.374 40.4339 357.239 40.2308C357.103 40.0278 356.91 39.8696 356.685 39.7761C356.459 39.6827 356.211 39.6582 355.971 39.7059C355.732 39.7535 355.512 39.8711 355.339 40.0438C355.167 40.2164 355.049 40.4364 355.001 40.6759C354.954 40.9154 354.978 41.1636 355.072 41.3892C355.165 41.6148 355.323 41.8076 355.526 41.9433C355.729 42.079 355.968 42.1514 356.212 42.1514C356.539 42.1504 356.853 42.02 357.084 41.7887C357.316 41.5574 357.446 41.2439 357.447 40.9168Z" fill="white" fill-opacity="0.5"/>
<path d="M536.976 335.92C536.976 335.296 537.161 334.687 537.507 334.169C537.854 333.651 538.346 333.247 538.921 333.009C539.497 332.77 540.13 332.708 540.742 332.829C541.353 332.951 541.914 333.251 542.355 333.692C542.795 334.132 543.095 334.694 543.217 335.305C543.339 335.916 543.276 336.55 543.038 337.125C542.799 337.701 542.395 338.193 541.877 338.539C541.359 338.885 540.75 339.07 540.127 339.07C539.291 339.07 538.49 338.738 537.899 338.147C537.308 337.557 536.976 336.755 536.976 335.92ZM542.568 335.92C542.568 335.437 542.425 334.965 542.157 334.563C541.888 334.162 541.507 333.849 541.061 333.664C540.615 333.48 540.124 333.431 539.651 333.525C539.177 333.62 538.742 333.852 538.401 334.193C538.06 334.535 537.827 334.97 537.733 335.443C537.639 335.917 537.687 336.408 537.872 336.854C538.057 337.3 538.369 337.681 538.771 337.949C539.172 338.217 539.644 338.361 540.127 338.361C540.774 338.359 541.394 338.101 541.851 337.644C542.308 337.186 542.566 336.566 542.568 335.92Z" fill="white" fill-opacity="0.5"/>
<path d="M332.577 409.342C332.577 408.719 332.762 408.11 333.108 407.592C333.454 407.074 333.946 406.67 334.522 406.431C335.098 406.193 335.731 406.131 336.342 406.252C336.953 406.374 337.515 406.674 337.956 407.114C338.396 407.555 338.696 408.116 338.818 408.728C338.939 409.339 338.877 409.972 338.638 410.548C338.4 411.124 337.996 411.616 337.478 411.962C336.96 412.308 336.351 412.493 335.728 412.493C334.892 412.493 334.091 412.161 333.5 411.57C332.909 410.979 332.577 410.178 332.577 409.342ZM338.169 409.342C338.169 408.859 338.026 408.388 337.757 407.986C337.489 407.585 337.108 407.272 336.662 407.087C336.216 406.902 335.725 406.854 335.251 406.948C334.778 407.042 334.343 407.275 334.002 407.616C333.66 407.958 333.428 408.393 333.334 408.866C333.239 409.34 333.288 409.83 333.472 410.276C333.657 410.722 333.97 411.104 334.372 411.372C334.773 411.64 335.245 411.783 335.728 411.783C336.375 411.781 336.994 411.524 337.452 411.066C337.909 410.609 338.167 409.989 338.169 409.342Z" fill="white" fill-opacity="0.5"/>
</g>
<defs>
<linearGradient id="paint0_linear" x1="16.7679" y1="521.694" x2="662.482" y2="259.901" gradientUnits="userSpaceOnUse">
<stop stop-color="#1C75BC"/>
<stop offset="0.533" stop-color="#27AAE1"/>
<stop offset="1" stop-color="#00BFD8"/>
</linearGradient>
<clipPath id="clip0">
<rect width="570" height="550" fill="white"/>
</clipPath>
</defs>
</svg>
