<svg   viewBox="0 0 524 507" fill="none" xmlns="http://www.w3.org/2000/svg">
<g filter="url(#filter0_d)">
<path d="M490.754 293.242C490.754 291.787 491.018 291.588 493.065 291.588C495.905 291.588 495.971 292.25 493.461 293.771C490.952 295.226 490.754 295.226 490.754 293.242Z" fill="#E2E4EA"/>
<path d="M257.188 7.71798C257.188 7.71798 336.347 -0.816907 371.499 31.4556C360.647 23.3208 345.069 16.5863 319.969 23.5875C293.339 7.71798 257.188 7.71798 257.188 7.71798Z" fill="#BBBBBB"/>
<path d="M200.199 30.6555C200.199 30.6555 266.376 63.6615 253.26 118.805C251.463 126.94 257.388 134.674 294.271 114.604C311.181 147.677 340.874 195.019 416.903 180.683C416.903 153.878 406.584 -6.61796 319.903 23.6542C270.104 -5.01767 221.304 9.91838 200.199 30.6555Z" fill="white" stroke="#BBBBBB" stroke-width="0.5" stroke-miterlimit="10"/>
<path d="M282.82 109.07C280.49 108.136 278.493 105.136 279.225 103.735C279.957 102.402 282.62 101.868 298.532 99.8014C303.858 99.0679 313.112 97.8677 319.17 97.0675L330.089 95.5339L331.953 97.801C333.751 99.9347 334.35 102.002 333.285 102.602C333.018 102.802 330.422 103.135 327.492 103.402C314.51 104.469 296.202 107.069 287.547 109.07C284.418 109.803 284.618 109.803 282.82 109.07Z" fill="#23D2AD"/>
<path d="M298.798 83.7317C288.545 85.1986 279.824 86.3988 279.424 86.3988C279.025 86.3988 277.76 85.4653 276.628 84.3318C275.497 83.1982 274.564 81.598 274.564 80.7311C274.564 78.9308 276.162 78.464 290.21 76.397C321.634 71.7295 348.464 68.5289 366.173 67.3287L372.83 66.8619L374.628 68.9957C376.559 71.2627 376.958 73.5965 375.627 74.0632C375.161 74.1966 370.101 74.7967 364.442 75.3968" fill="#23ABD0"/>
<path d="M305.722 59.9943C300.063 60.8611 293.139 61.928 290.41 62.3281C287.68 62.7282 282.887 63.4616 279.758 63.9951C271.236 65.3953 269.971 65.2619 267.708 62.8615C265.71 60.7278 265.444 59.861 266.309 58.5274C266.576 58.0606 274.432 56.327 283.752 54.66C317.306 48.5923 363.244 42.7245 366.573 43.9914C368.037 44.5249 370.5 48.7923 370.101 49.9258C369.901 50.3926 368.437 50.9927 366.839 51.1927L305.722 59.9943Z" fill="#D54585"/>
<path d="M253.859 125.139C253.859 125.139 280.956 156.478 362.311 179.883C326.826 165.747 318.038 155.812 294.271 114.671C275.896 123.472 260.916 130.874 253.859 125.139Z" fill="#BBBBBB"/>
<path d="M248.659 195.747C248.659 194.076 252.839 183.79 256.415 180.129C259.355 178.538 262.173 177.527 265.51 176.572C270.278 175.219 275.994 175.771 277.821 177.204C279.172 178.159 277.901 179.034 259.386 190.335C256.923 191.847 253.665 193.917 252.155 194.951C247.149 197.816 248.262 197.498 248.262 196.145L248.659 195.747Z" fill="#BBBBBB"/>
<path d="M84.1741 358.497C84.1741 358.497 101.576 338.839 103.165 322.366C106.105 292.203 105.072 265.065 143.929 240.155C187.712 212.46 257.4 180.706 257.4 180.706C257.4 180.706 237.693 208.162 236.104 257.823C234.515 307.483 211.153 333.666 204.876 337.089C198.598 340.59 174.521 355.87 152.987 335.258C118.978 347.514 119.216 349.345 84.1741 358.497Z" fill="white" stroke="#BBBBBB" stroke-width="0.601605" stroke-miterlimit="10"/>
<path d="M137.254 291.646C136.38 290.532 137.89 286.314 139.718 284.881C141.386 283.528 210.279 248.909 211.392 248.909C213.219 248.909 215.206 251.933 214.65 254.003C214.252 255.594 212.584 256.788 206.783 259.494C198.996 263.314 182.071 271.511 157.04 283.688C138.367 292.84 138.208 292.84 137.254 291.646Z" fill="#23A8D3"/>
<path d="M142.737 267.691C141.545 266.338 142.657 263.394 145.121 261.165C146.789 259.653 156.563 253.923 169.674 246.681C172.058 245.408 177.779 242.224 182.388 239.757C186.997 237.211 196.294 232.276 203.048 228.854C216.239 222.169 219.338 221.453 220.609 224.875C221.801 227.979 217.907 230.764 199.87 239.996C190.493 244.771 173.965 253.207 163.159 258.698C147.266 266.895 143.452 268.567 142.737 267.691Z" fill="#977CAF"/>
<path d="M152.669 334.383C152.669 334.383 79.5651 368.365 10.9106 370.991C41.6621 380.382 118.422 381.178 203.286 338.521C182.547 348.23 154.974 337.407 152.669 334.383Z" fill="#BBBBBB"/>
<path d="M304.867 241.955L447.955 305.62C447.955 305.62 485.114 325.456 457.357 377.45C433.801 443.669 439.752 453.387 439.752 453.387L354.68 438.259C354.68 438.259 349.329 481.988 308.868 475.827C268.408 469.716 266.157 424.785 304.317 341.685C342.977 257.533 304.167 242.606 304.867 241.955Z" fill="white" stroke="#BBBBBB" stroke-width="0.5" stroke-miterlimit="10"/>
<path d="M343.027 452.585C339.726 452.084 331.424 450.882 324.622 449.88C317.771 448.879 311.769 447.827 311.269 447.576C310.719 447.276 309.919 446.374 309.518 445.573C308.118 442.818 308.818 439.862 311.269 438.41C313.069 437.308 314.12 437.358 320.921 438.56C324.022 439.061 327.423 439.662 328.523 439.812C329.674 439.962 331.024 440.163 331.524 440.263C332.074 440.363 333.675 440.614 335.025 440.764C337.376 441.064 350.679 443.319 353.18 443.87C354.53 444.12 354.48 444.32 352.18 449.981C351.129 452.485 350.429 453.587 349.879 453.537C349.379 453.487 346.328 453.086 343.027 452.585Z" fill="#39D1BB"/>
<path d="M401.292 434.252C395.641 433.05 390.39 431.998 389.539 431.848C388.739 431.698 383.438 430.646 377.786 429.494C372.135 428.342 366.983 427.29 366.283 427.189C365.583 427.039 356.581 425.236 346.278 423.182C335.975 421.078 326.523 419.225 325.273 418.975C320.171 418.073 313.069 416.42 312.219 415.969C310.719 415.168 309.769 413.415 309.769 411.361C309.769 409.808 310.119 409.107 311.369 407.905C313.47 405.951 312.919 405.851 332.524 410.209C341.077 412.062 354.58 415.068 360.782 416.47C364.483 417.322 368.534 418.223 369.784 418.524C371.035 418.774 381.737 421.179 393.54 423.783C409.094 427.24 415.296 428.842 415.996 429.494C417.247 430.746 417.197 433.851 415.896 435.154C414.396 436.657 412.345 436.556 401.292 434.252Z" fill="#9269A3"/>
<path d="M408.044 404.999C400.892 403.146 393.34 401.142 391.29 400.591C389.239 400.04 386.989 399.439 386.289 399.289C385.588 399.189 382.138 398.287 378.537 397.336C368.534 394.631 341.677 387.668 332.775 385.414C325.823 383.661 324.773 383.26 323.672 381.757C322.872 380.605 322.622 379.604 322.722 377.55C322.772 375.847 325.873 372.942 327.523 372.942C328.724 372.942 338.826 375.646 353.53 379.954C356.281 380.756 365.383 383.36 373.785 385.715C404.793 394.48 420.598 398.938 424.199 400.091C426.149 400.692 427.499 403.196 426.999 405.25C426.549 407.003 424.499 408.506 422.598 408.456C421.748 408.456 415.196 406.903 408.044 404.999Z" fill="#D45B94"/>
<path d="M354.68 438.259L513.922 466.059C513.922 488.3 399.092 509.488 298.166 472.972C337.826 488.149 354.28 446.023 354.68 438.259Z" fill="#BBBBBB"/>
</g>
<defs>
<filter id="filter0_d" x="0.910645" y="0.696533" width="523.011" height="506.029" filterUnits="userSpaceOnUse" color-interpolation-filters="sRGB">
<feFlood flood-opacity="0" result="BackgroundImageFix"/>
<feColorMatrix in="SourceAlpha" type="matrix" values="0 0 0 0 0 0 0 0 0 0 0 0 0 0 0 0 0 0 127 0"/>
<feOffset dy="4"/>
<feGaussianBlur stdDeviation="5"/>
<feColorMatrix type="matrix" values="0 0 0 0 0 0 0 0 0 0 0 0 0 0 0 0 0 0 0.1 0"/>
<feBlend mode="normal" in2="BackgroundImageFix" result="effect1_dropShadow"/>
<feBlend mode="normal" in="SourceGraphic" in2="effect1_dropShadow" result="shape"/>
</filter>
</defs>
</svg>
