<svg width="1585" height="1531" viewBox="0 0 1585 1531" fill="none" xmlns="http://www.w3.org/2000/svg">
<path d="M776.084 3.52902C776.084 3.52902 1025.24 -23.335 1135.88 78.2446C1101.73 52.6398 1052.69 31.4424 973.691 53.4793C889.871 3.52902 776.084 3.52902 776.084 3.52902Z" fill="#BBBBBB"/>
<path d="M596.707 75.7261C596.707 75.7261 805.001 179.614 763.72 353.181C758.062 378.786 776.712 403.131 892.803 339.959C946.029 444.057 1039.49 593.069 1278.8 547.945C1278.8 463.576 1246.32 -41.5941 973.48 53.6892C816.736 -36.5571 663.135 10.4549 596.707 75.7261Z" fill="white" stroke="#BBBBBB" stroke-width="1.57378" stroke-miterlimit="10"/>
<path d="M856.761 322.539C849.427 319.601 843.14 310.157 845.445 305.749C847.75 301.552 856.132 299.873 906.215 293.367C922.979 291.058 952.107 287.28 971.176 284.762L1005.54 279.935L1011.41 287.071C1017.07 293.787 1018.95 300.293 1015.6 302.182C1014.76 302.811 1006.59 303.861 997.37 304.7C956.507 308.058 898.881 316.243 871.639 322.539C861.79 324.848 862.419 324.848 856.761 322.539Z" fill="#23D2AD"/>
<path d="M907.053 242.787C874.782 247.404 847.331 251.182 846.074 251.182C844.816 251.182 840.835 248.243 837.272 244.675C833.71 241.108 830.776 236.071 830.776 233.342C830.776 227.676 835.806 226.206 880.021 219.7C978.929 205.009 1063.38 194.935 1119.12 191.157L1140.07 189.688L1145.73 196.404C1151.81 203.54 1153.07 210.886 1148.88 212.355C1147.41 212.774 1131.48 214.663 1113.67 216.552" fill="#23ABD0"/>
<path d="M928.847 168.072C911.035 170.8 889.242 174.158 880.65 175.418C872.059 176.677 856.971 178.985 847.122 180.664C820.3 185.072 816.318 184.652 809.193 177.097C802.907 170.381 802.069 167.652 804.793 163.455C805.631 161.986 830.358 156.529 859.695 151.282C965.309 132.183 1109.9 113.714 1120.38 117.702C1124.99 119.381 1132.74 132.813 1131.48 136.381C1130.85 137.85 1126.24 139.739 1121.21 140.368L928.847 168.072Z" fill="#D54585"/>
<path d="M765.606 373.12C765.606 373.12 850.893 471.761 1106.96 545.427C995.274 500.934 967.613 469.662 892.803 340.169C834.967 367.873 787.818 391.169 765.606 373.12Z" fill="#BBBBBB"/>
<path d="M749.237 595.362C749.237 590.101 762.394 557.727 773.649 546.204C782.903 541.194 791.773 538.014 802.277 535.008C817.284 530.749 835.274 532.487 841.027 536.996C845.278 540.002 841.277 542.757 783.001 578.328C775.248 583.087 764.994 589.6 760.242 592.857C744.485 601.874 747.986 600.872 747.986 596.614L749.237 595.362Z" fill="#BBBBBB"/>
<path d="M231.511 1107.63C231.511 1107.63 286.285 1045.75 291.287 993.9C300.541 898.963 297.29 813.544 419.593 735.138C557.403 647.966 776.749 548.018 776.749 548.018C776.749 548.018 714.722 634.439 709.719 790.749C704.717 947.058 631.185 1029.47 611.427 1040.24C591.668 1051.26 515.885 1099.36 448.106 1034.48C341.059 1073.06 341.809 1078.82 231.511 1107.63Z" fill="white" stroke="#BBBBBB" stroke-width="1.89358" stroke-miterlimit="10"/>
<path d="M398.585 897.209C395.834 893.702 400.586 880.425 406.338 875.916C411.591 871.658 628.435 762.693 631.936 762.693C637.689 762.693 643.942 772.211 642.191 778.724C640.94 783.734 635.688 787.492 617.43 796.008C592.92 808.032 539.646 833.833 460.862 872.159C402.087 900.966 401.586 900.966 398.585 897.209Z" fill="#23A8D3"/>
<path d="M415.842 821.81C412.09 817.552 415.592 808.283 423.345 801.269C428.597 796.51 459.361 778.474 500.629 755.679C508.132 751.671 526.14 741.651 540.646 733.886C555.152 725.87 584.415 710.339 605.674 699.568C647.192 678.527 656.947 676.272 660.948 687.043C664.7 696.813 652.445 705.58 595.67 734.638C566.157 749.667 514.135 776.22 480.12 793.504C430.098 819.305 418.093 824.565 415.842 821.81Z" fill="#977CAF"/>
<path d="M447.105 1031.73C447.105 1031.73 217.005 1138.69 0.910645 1146.95C97.7027 1176.51 339.308 1179.02 606.424 1044.75C541.146 1075.31 454.358 1041.24 447.105 1031.73Z" fill="#BBBBBB"/>
<path d="M926.156 740.804L1376.53 941.193C1376.53 941.193 1493.49 1003.63 1406.13 1167.28C1331.98 1375.71 1350.71 1406.3 1350.71 1406.3L1082.95 1358.68C1082.95 1358.68 1066.1 1496.32 938.75 1476.93C811.398 1457.69 804.314 1316.27 924.424 1054.71C1046.11 789.837 923.952 742.854 926.156 740.804Z" fill="white" stroke="#BBBBBB" stroke-width="1.57378" stroke-miterlimit="10"/>
<path d="M1046.27 1403.77C1035.88 1402.2 1009.75 1398.41 988.337 1395.26C966.77 1392.11 947.88 1388.8 946.306 1388.01C944.574 1387.06 942.055 1384.22 940.796 1381.7C936.388 1373.03 938.592 1363.73 946.306 1359.16C951.973 1355.69 955.279 1355.85 976.688 1359.63C986.447 1361.21 997.152 1363.1 1000.62 1363.57C1004.24 1364.04 1008.49 1364.67 1010.06 1364.99C1011.79 1365.3 1016.83 1366.09 1021.08 1366.57C1028.48 1367.51 1070.35 1374.61 1078.22 1376.34C1082.47 1377.13 1082.32 1377.76 1075.07 1395.58C1071.77 1403.46 1069.56 1406.93 1067.83 1406.77C1066.26 1406.61 1056.66 1405.35 1046.27 1403.77Z" fill="#39D1BB"/>
<path d="M1229.66 1346.07C1211.87 1342.29 1195.34 1338.98 1192.67 1338.5C1190.15 1338.03 1173.46 1334.72 1155.67 1331.09C1137.88 1327.47 1121.67 1324.16 1119.47 1323.84C1117.26 1323.37 1088.93 1317.69 1056.5 1311.23C1024.07 1304.6 994.319 1298.77 990.383 1297.98C974.326 1295.15 951.973 1289.94 949.297 1288.52C944.574 1286 941.583 1280.48 941.583 1274.02C941.583 1269.13 942.685 1266.92 946.621 1263.14C953.232 1256.99 951.501 1256.68 1013.21 1270.39C1040.13 1276.23 1082.63 1285.69 1102.15 1290.1C1113.8 1292.78 1126.55 1295.62 1130.49 1296.56C1134.42 1297.35 1168.11 1304.92 1205.26 1313.12C1254.22 1324 1273.74 1329.04 1275.94 1331.09C1279.88 1335.03 1279.72 1344.81 1275.63 1348.91C1270.9 1353.64 1264.45 1353.32 1229.66 1346.07Z" fill="#9269A3"/>
<path d="M1250.91 1254C1228.4 1248.16 1204.63 1241.86 1198.18 1240.12C1191.72 1238.39 1184.64 1236.49 1182.43 1236.02C1180.23 1235.71 1169.37 1232.87 1158.03 1229.87C1126.55 1221.36 1042.02 1199.44 1014 1192.35C992.115 1186.83 988.809 1185.57 985.346 1180.84C982.827 1177.21 982.04 1174.06 982.355 1167.6C982.512 1162.24 992.272 1153.09 997.467 1153.09C1001.25 1153.09 1033.04 1161.61 1079.32 1175.16C1087.98 1177.69 1116.63 1185.89 1143.08 1193.3C1240.68 1220.89 1290.42 1234.92 1301.76 1238.54C1307.9 1240.44 1312.15 1248.32 1310.57 1254.78C1309.16 1260.3 1302.7 1265.03 1296.72 1264.87C1294.04 1264.87 1273.42 1259.99 1250.91 1254Z" fill="#D45B94"/>
<path d="M1082.95 1358.68L1584.17 1446.19C1584.17 1516.19 1222.73 1582.88 905.062 1467.94C1029.9 1515.71 1081.69 1383.12 1082.95 1358.68Z" fill="#BBBBBB"/>
</svg>
