<svg xmlns="http://www.w3.org/2000/svg" viewBox="0 0 485.35 91.49"><defs><style>.cls-1{fill:#231f20;}.cls-2{fill:#f6c614;}</style></defs><title>Asset 3</title><g id="Layer_2" data-name="Layer 2"><g id="Layer_1-2" data-name="Layer 1"><rect class="cls-1" x="283.06" y="55.79" width="11.9" height="11.9"/><rect class="cls-1" x="294.96" y="67.69" width="11.9" height="11.9"/><rect class="cls-1" x="283.06" y="79.59" width="11.9" height="11.9"/><rect class="cls-1" x="306.86" y="55.79" width="11.9" height="11.9"/><rect class="cls-1" x="318.76" y="67.69" width="11.9" height="11.9"/><rect class="cls-1" x="306.86" y="79.59" width="11.9" height="11.9"/><rect class="cls-1" x="330.66" y="55.79" width="11.9" height="11.9"/><rect class="cls-1" x="342.56" y="67.69" width="11.9" height="11.9"/><rect class="cls-1" x="330.66" y="79.59" width="11.9" height="11.9"/><rect class="cls-1" x="354.46" y="55.79" width="11.9" height="11.9"/><rect class="cls-1" x="366.36" y="67.69" width="11.9" height="11.9"/><rect class="cls-1" x="354.46" y="79.59" width="11.9" height="11.9"/><rect class="cls-1" x="378.26" y="55.79" width="11.9" height="11.9"/><rect class="cls-1" x="390.16" y="67.69" width="11.9" height="11.9"/><rect class="cls-1" x="378.26" y="79.59" width="11.9" height="11.9"/><rect class="cls-1" x="402.06" y="55.79" width="11.9" height="11.9"/><rect class="cls-1" x="413.95" y="67.69" width="11.9" height="11.9"/><rect class="cls-1" x="402.06" y="79.59" width="11.9" height="11.9"/><rect class="cls-1" x="425.85" y="55.79" width="11.9" height="11.9"/><rect class="cls-1" x="437.75" y="67.69" width="11.9" height="11.9"/><rect class="cls-1" x="425.85" y="79.59" width="11.9" height="11.9"/><rect class="cls-1" x="449.65" y="55.79" width="11.9" height="11.9"/><rect class="cls-1" x="461.55" y="67.69" width="11.9" height="11.9"/><rect class="cls-1" x="449.65" y="79.59" width="11.9" height="11.9"/><rect class="cls-1" x="473.45" y="55.79" width="11.9" height="11.9"/><rect class="cls-1" x="473.45" y="79.59" width="11.9" height="11.9"/><path class="cls-2" d="M8.38,0H274.69a8.38,8.38,0,0,1,8.38,8.38V83.11a8.37,8.37,0,0,1-8.37,8.37H8.38A8.38,8.38,0,0,1,0,83.11V8.38A8.38,8.38,0,0,1,8.38,0Z"/><path class="cls-1" d="M80.07,16.34H55.88V91.49H34.64V16.34H10.89V0H80.07Z"/><path class="cls-1" d="M129.71,73.7H102.5L97.22,91.49H74.85L104.7,0h11.37V.06l.07-.06h11.37l29.91,91.49H135.05ZM107.4,57.37h17.41L116.26,29h-.38Z"/><path class="cls-1" d="M197.38,30.85,212.46,0H237l-26.2,45.37L239,91.49H213.21L197.63,60,182.05,91.49H157.54l26.9-46.12L158.23,0h24.32Z"/><path class="cls-1" d="M268.57,91.49H247.39V0h21.18Z"/><path class="cls-1" d="M312.69,52.67l-7.53-12.88a14.53,14.53,0,0,1-1.56.06h-9.84V52.67h-8.34V9.09H303.6q8.46,0,13.07,3.92t4.61,11.09a16.38,16.38,0,0,1-2.21,8.71,13.49,13.49,0,0,1-6.44,5.42l9.59,14.44ZM293.76,32.5h9.84q4.72,0,7.22-2.05a7.47,7.47,0,0,0,2.49-6.11,7.19,7.19,0,0,0-2.49-6q-2.49-2-7.22-2h-9.84Z"/><path class="cls-1" d="M349.8,52.67v-4a11,11,0,0,1-4.48,3.3A16.68,16.68,0,0,1,339,53.05a13.47,13.47,0,0,1-6.14-1.34A9.77,9.77,0,0,1,328.82,48a10,10,0,0,1-1.44-5.29,8.85,8.85,0,0,1,3.3-7.31q3.3-2.65,9.34-2.71h9.72v-.87a5.64,5.64,0,0,0-1.93-4.55,8.53,8.53,0,0,0-5.61-1.62,19.32,19.32,0,0,0-9.9,3.11l-2.92-5.6A36.57,36.57,0,0,1,336.51,20a25.81,25.81,0,0,1,7.5-1c4.31,0,7.67,1,10.05,3.12s3.6,5,3.65,8.71l.06,21.79Zm-2.87-7.5a5.76,5.76,0,0,0,2.81-4.08v-3h-8.41a9.13,9.13,0,0,0-4.76,1A3.43,3.43,0,0,0,335,42.21a4,4,0,0,0,1.59,3.37A6.84,6.84,0,0,0,341,46.82,10.56,10.56,0,0,0,346.93,45.17Z"/><path class="cls-1" d="M374.14,6.41a4.83,4.83,0,0,1,1.31,3.49,4.72,4.72,0,0,1-1.31,3.42,4.66,4.66,0,0,1-6.6,0,4.75,4.75,0,0,1-1.3-3.42,4.87,4.87,0,0,1,1.3-3.49,4.66,4.66,0,0,1,6.6,0Zm-7.28,13H375V52.67h-8.09Z"/><path class="cls-1" d="M414.05,22.51q3.3,3.45,3.3,9.37V52.67H409.2V34.24a7.52,7.52,0,0,0-2-5.51,7.28,7.28,0,0,0-5.41-2,8.2,8.2,0,0,0-6.38,2.74,10,10,0,0,0-2.34,6.85V52.67H385V19.36h8.09v6.23q3.42-6.42,11.95-6.54Q410.75,19.05,414.05,22.51Z"/><path class="cls-1" d="M452.31,23.66q4,4.55,4,12.76,0,1.62-.06,2.43h-24.6a9.29,9.29,0,0,0,9.53,7.6,12.59,12.59,0,0,0,4.89-1,11.83,11.83,0,0,0,4.07-2.77l4.36,4.55a16.94,16.94,0,0,1-6.07,4.23,20.32,20.32,0,0,1-7.94,1.5,18.52,18.52,0,0,1-9-2.12,14.78,14.78,0,0,1-6-5.95,17.92,17.92,0,0,1-2.12-8.81,17.89,17.89,0,0,1,2.15-8.84,15.17,15.17,0,0,1,6-6,17.76,17.76,0,0,1,8.78-2.15Q448.29,19.11,452.31,23.66Zm-3.39,9.77a8.07,8.07,0,0,0-2.43-5.85,9.47,9.47,0,0,0-12.05,0,9.44,9.44,0,0,0-2.95,5.88Z"/><path class="cls-1" d="M476,20.83a13.46,13.46,0,0,1,6.76-1.78V26.9q-5.18-.31-8.25,2.39a9.24,9.24,0,0,0-3.08,7.32V52.67h-8.1V19.36h8.1v6.42A12,12,0,0,1,476,20.83Z"/></g></g></svg>