<svg width="255" height="72" viewBox="0 0 255 72" fill="none" xmlns="http://www.w3.org/2000/svg">
<g clip-path="url(#clip0)">
<path d="M23.7149 0L0.589569 11.5607V35.2472L1.77436 35.8556L7.65444 38.7675L23.7149 46.8079L37.0548 40.1149L31.6574 37.4202L31.1747 37.2029L23.7149 40.9406L16.3868 37.2899L13.5345 35.8556L7.65444 32.9003L5.89919 32.031V14.7769L23.7149 5.86729L41.4868 14.7769V31.0749L46.7964 33.7695V11.5607L23.7149 0Z" fill="#3067E2"/>
<path d="M45.6555 35.8557L39.7755 32.9003H39.7316L36.9671 31.5096L23.715 24.86L10.3312 31.553L16.2113 34.5084L23.715 30.7707L29.99 33.9L33.8515 35.8557L39.7316 38.7676L41.4868 39.6803V56.891L23.715 65.8006L5.89919 56.891V40.593L0.589569 37.9419V60.1072L23.715 71.6679L46.7964 60.1072V36.4207L45.6555 35.8557Z" fill="white"/>
</g>
<path d="M72.7148 29.7365C72.7148 31.1459 73.1043 32.3143 73.8832 33.2416C74.6621 34.1689 75.6636 34.8551 76.8876 35.3002C78.1116 35.7453 79.4654 36.1347 80.9491 36.4685C82.4698 36.8024 83.972 37.1918 85.4557 37.6369C86.9764 38.0449 88.3488 38.5827 89.5728 39.2504C90.7968 39.918 91.7983 40.9195 92.5772 42.2548C93.3561 43.5901 93.7456 45.2406 93.7456 47.2064C93.7456 50.2108 92.5957 52.8258 90.2961 55.0512C87.9964 57.2767 84.8807 58.3895 80.9491 58.3895C77.0545 58.3895 73.8832 57.4993 71.4352 55.7189C68.9871 53.9014 67.7631 51.4534 67.7631 48.3748H73.1599C73.3083 50.1181 73.9945 51.5276 75.2185 52.6032C76.4796 53.6789 78.3341 54.2167 80.7822 54.2167C83.2302 54.2167 85.1775 53.5861 86.624 52.325C88.0706 51.0639 88.7939 49.5988 88.7939 47.9297C88.7939 46.2235 88.4044 44.9253 87.6255 44.0351C86.8466 43.1079 85.8451 42.4217 84.6211 41.9766C83.3971 41.5315 82.0247 41.1606 80.504 40.8638C79.0203 40.53 77.5181 40.1406 75.9974 39.6955C74.5137 39.2504 73.1599 38.694 71.9359 38.0264C70.7119 37.3216 69.7104 36.3016 68.9315 34.9663C68.1526 33.594 67.7631 31.9063 67.7631 29.9034C67.7631 26.6394 68.913 24.0244 71.2126 22.0586C73.5494 20.0557 76.5723 19.0542 80.2814 19.0542C84.0276 19.0542 86.9949 19.9258 89.1833 21.6691C91.4088 23.3753 92.6884 25.7492 93.0223 28.7906H87.4029C87.2546 27.2699 86.5313 25.9717 85.2331 24.8961C83.972 23.8204 82.2473 23.2826 80.0589 23.2826C77.9076 23.2826 76.1458 23.839 74.7734 24.9517C73.401 26.0274 72.7148 27.6223 72.7148 29.7365ZM122.004 51.0454C124.044 48.9683 125.064 46.205 125.064 42.7555C125.064 39.306 124.044 36.5427 122.004 34.4656C120.001 32.3885 117.572 31.3499 114.716 31.3499C111.897 31.3499 109.467 32.3514 107.427 34.3543C105.425 36.3573 104.423 39.0835 104.423 42.533C104.423 45.9824 105.443 48.7828 107.483 50.9341C109.523 53.0854 111.953 54.1611 114.772 54.1611C117.59 54.1611 120.001 53.1225 122.004 51.0454ZM113.826 58.5007C109.671 58.5007 106.203 57.0171 103.422 54.0498C100.64 51.0454 99.2488 47.225 99.2488 42.5886C99.2488 37.9151 100.621 34.1503 103.366 31.2943C106.148 28.4012 109.634 26.9546 113.826 26.9546C116.422 26.9546 118.685 27.5666 120.613 28.7906C122.579 30.0147 124.063 31.6096 125.064 33.5754V27.4554H130.183V58H125.064V51.7687C124.063 53.7716 122.579 55.4036 120.613 56.6647C118.685 57.8887 116.422 58.5007 113.826 58.5007ZM151.098 27.4554V31.5725H144.7V58H139.581V31.5725H135.631V27.4554H139.581V24.8961C139.581 21.5579 140.471 19.1284 142.252 17.6076C144.032 16.0869 146.833 15.3265 150.653 15.3265V19.4437C148.427 19.4437 146.87 19.8702 145.979 20.7233C145.126 21.5393 144.7 22.9302 144.7 24.8961V27.4554H151.098ZM169.685 58.5007C165.308 58.5007 161.748 57.0542 159.003 54.1611C156.258 51.2679 154.886 47.4475 154.886 42.6999C154.886 37.9522 156.277 34.1503 159.058 31.2943C161.84 28.4012 165.438 26.9546 169.852 26.9546C174.303 26.9546 177.864 28.327 180.534 31.0718C183.242 33.7794 184.596 37.2475 184.596 41.4759C184.596 42.5515 184.522 43.553 184.373 44.4802H160.06C160.208 47.5217 161.154 49.9327 162.897 51.713C164.678 53.4563 166.94 54.328 169.685 54.328C171.762 54.328 173.505 53.8643 174.915 52.937C176.362 52.0098 177.419 50.7858 178.086 49.265H183.539C182.574 51.9356 180.905 54.1425 178.531 55.8858C176.195 57.6291 173.246 58.5007 169.685 58.5007ZM179.31 40.8082C179.273 37.878 178.346 35.5413 176.528 33.798C174.711 32.0176 172.448 31.1274 169.741 31.1274C167.07 31.1274 164.845 31.999 163.064 33.7423C161.284 35.4485 160.301 37.8038 160.116 40.8082H179.31ZM190.901 19.4437H204.699C208.631 19.4437 211.672 20.408 213.823 22.3368C215.975 24.2284 217.05 26.6764 217.05 29.6808C217.05 33.9834 214.584 36.8209 209.651 38.1933C212.136 38.6013 214.139 39.714 215.659 41.5315C217.18 43.349 217.94 45.4446 217.94 47.8185C217.94 50.7487 216.791 53.1781 214.491 55.1069C212.228 57.0356 209.187 58 205.367 58H190.901V19.4437ZM195.964 23.5051V36.1904H204.476C206.813 36.1904 208.631 35.634 209.929 34.5212C211.264 33.3714 211.932 31.8321 211.932 29.9034C211.932 27.9376 211.264 26.3797 209.929 25.2299C208.631 24.0801 206.813 23.5051 204.476 23.5051H195.964ZM195.964 53.9941H205.088C207.536 53.9941 209.447 53.3821 210.819 52.1581C212.228 50.9341 212.933 49.265 212.933 47.1508C212.933 44.9995 212.173 43.3119 210.652 42.0879C209.168 40.8638 207.184 40.2518 204.699 40.2518H195.964V53.9941ZM229.975 21.5579C229.307 22.2255 228.491 22.5593 227.527 22.5593C226.563 22.5593 225.747 22.2255 225.079 21.5579C224.448 20.8902 224.133 20.0742 224.133 19.1098C224.133 18.1455 224.467 17.3295 225.135 16.6618C225.802 15.9942 226.6 15.6604 227.527 15.6604C228.491 15.6604 229.307 15.9942 229.975 16.6618C230.643 17.3295 230.976 18.1455 230.976 19.1098C230.976 20.0742 230.643 20.8902 229.975 21.5579ZM224.968 58V27.4554H230.031V58H224.968ZM248.403 53.8829H252.575V58H247.457C242.153 58 239.501 55.3851 239.501 50.1552V31.5725H235.55V27.4554H239.501V19.8888H244.619V27.4554H252.52V31.5725H244.619V50.1552C244.619 51.5276 244.897 52.492 245.454 53.0483C246.01 53.6047 246.993 53.8829 248.403 53.8829Z" fill="white"/>
<defs>
<clipPath id="clip0">
<rect width="46.2069" height="71.6678" fill="white" transform="translate(0.589569)"/>
</clipPath>
</defs>
</svg>
