<svg width="1500" height="1500" viewBox="0 0 1500 1500" fill="none" xmlns="http://www.w3.org/2000/svg">
<path d="M959.824 181.225L955.354 180.609L955.971 176.139C956.018 175.793 955.927 175.442 955.716 175.163C955.504 174.884 955.191 174.701 954.845 174.653C954.499 174.605 954.148 174.697 953.869 174.908C953.59 175.119 953.407 175.433 953.359 175.779L952.743 180.249L948.273 179.632C947.927 179.585 947.576 179.677 947.297 179.888C947.018 180.099 946.835 180.412 946.787 180.758C946.739 181.104 946.831 181.455 947.042 181.734C947.253 182.013 947.567 182.196 947.913 182.244L952.383 182.86L951.766 187.33C951.719 187.677 951.81 188.028 952.022 188.306C952.233 188.585 952.546 188.768 952.892 188.816C953.238 188.864 953.589 188.772 953.868 188.561C954.147 188.35 954.33 188.037 954.378 187.69L954.994 183.22L959.464 183.837C959.81 183.884 960.162 183.793 960.44 183.582C960.719 183.37 960.902 183.057 960.95 182.711C960.998 182.365 960.906 182.014 960.695 181.735C960.484 181.456 960.171 181.273 959.824 181.225V181.225Z" fill="white" fill-opacity="0.5"/>
<path d="M209.294 893.512L204.824 892.896L205.44 888.426C205.488 888.08 205.396 887.728 205.185 887.45C204.974 887.171 204.661 886.988 204.315 886.94C203.968 886.892 203.617 886.984 203.339 887.195C203.06 887.406 202.877 887.719 202.829 888.066L202.213 892.536L197.743 891.919C197.396 891.872 197.045 891.963 196.767 892.174C196.488 892.386 196.305 892.699 196.257 893.045C196.209 893.391 196.301 893.742 196.512 894.021C196.723 894.3 197.036 894.483 197.383 894.531L201.853 895.147L201.236 899.617C201.188 899.963 201.28 900.314 201.491 900.593C201.702 900.872 202.016 901.055 202.362 901.103C202.708 901.151 203.059 901.059 203.338 900.848C203.616 900.637 203.8 900.323 203.848 899.977L204.464 895.507L208.934 896.124C209.28 896.171 209.631 896.08 209.91 895.868C210.189 895.657 210.372 895.344 210.42 894.998C210.467 894.652 210.376 894.301 210.165 894.022C209.953 893.743 209.64 893.56 209.294 893.512V893.512Z" fill="white" fill-opacity="0.5"/>
<path d="M1199.92 696.766L1195.56 697.918L1194.41 693.555C1194.32 693.217 1194.1 692.929 1193.79 692.753C1193.49 692.577 1193.13 692.528 1192.79 692.618C1192.46 692.707 1192.17 692.927 1191.99 693.229C1191.82 693.531 1191.77 693.891 1191.86 694.229L1193.01 698.591L1188.65 699.744C1188.31 699.833 1188.02 700.053 1187.84 700.355C1187.67 700.657 1187.62 701.017 1187.71 701.355C1187.8 701.693 1188.02 701.981 1188.32 702.157C1188.62 702.333 1188.98 702.382 1189.32 702.292L1193.68 701.14L1194.83 705.503C1194.92 705.841 1195.14 706.129 1195.45 706.305C1195.75 706.481 1196.11 706.53 1196.45 706.44C1196.78 706.351 1197.07 706.131 1197.25 705.829C1197.42 705.527 1197.47 705.167 1197.38 704.829L1196.23 700.467L1200.59 699.314C1200.93 699.225 1201.22 699.005 1201.4 698.703C1201.57 698.401 1201.62 698.041 1201.53 697.703C1201.44 697.365 1201.22 697.077 1200.92 696.901C1200.62 696.725 1200.26 696.676 1199.92 696.766V696.766Z" fill="white" fill-opacity="0.5"/>
<path d="M368.114 1168.54L363.752 1169.7L362.599 1165.33C362.51 1165 362.29 1164.71 361.988 1164.53C361.686 1164.36 361.326 1164.31 360.988 1164.4C360.65 1164.49 360.362 1164.71 360.186 1165.01C360.01 1165.31 359.961 1165.67 360.051 1166.01L361.203 1170.37L356.841 1171.52C356.503 1171.61 356.214 1171.83 356.038 1172.13C355.862 1172.44 355.814 1172.8 355.903 1173.13C355.992 1173.47 356.212 1173.76 356.514 1173.94C356.816 1174.11 357.176 1174.16 357.514 1174.07L361.876 1172.92L363.029 1177.28C363.118 1177.62 363.338 1177.91 363.64 1178.08C363.942 1178.26 364.302 1178.31 364.64 1178.22C364.978 1178.13 365.266 1177.91 365.442 1177.61C365.618 1177.31 365.667 1176.95 365.578 1176.61L364.425 1172.24L368.788 1171.09C369.126 1171 369.414 1170.78 369.59 1170.48C369.766 1170.18 369.815 1169.82 369.725 1169.48C369.636 1169.14 369.416 1168.85 369.114 1168.68C368.812 1168.5 368.452 1168.45 368.114 1168.54V1168.54Z" fill="white" fill-opacity="0.5"/>
<path d="M520.14 302.014L512.584 304.01L510.589 296.454C510.434 295.869 510.053 295.369 509.53 295.065C509.007 294.76 508.384 294.676 507.799 294.83C507.213 294.985 506.713 295.366 506.409 295.889C506.104 296.412 506.02 297.035 506.175 297.62L508.171 305.176L500.615 307.171C500.03 307.326 499.53 307.707 499.226 308.23C498.921 308.753 498.837 309.376 498.991 309.961C499.146 310.547 499.527 311.046 500.05 311.351C500.573 311.656 501.196 311.74 501.781 311.585L509.337 309.589L511.332 317.145C511.487 317.73 511.868 318.23 512.391 318.534C512.914 318.839 513.537 318.923 514.122 318.769C514.707 318.614 515.207 318.233 515.512 317.71C515.816 317.187 515.901 316.564 515.746 315.979L513.75 308.423L521.306 306.428C521.891 306.273 522.391 305.892 522.695 305.369C523 304.846 523.084 304.223 522.93 303.638C522.775 303.052 522.394 302.553 521.871 302.248C521.348 301.943 520.725 301.859 520.14 302.014V302.014Z" fill="white" fill-opacity="0.5"/>
<path d="M1386.82 1265.32C1386.82 1266.8 1386.38 1268.24 1385.56 1269.46C1384.74 1270.69 1383.58 1271.64 1382.22 1272.21C1380.85 1272.77 1379.35 1272.92 1377.91 1272.63C1376.46 1272.34 1375.14 1271.63 1374.09 1270.59C1373.05 1269.55 1372.34 1268.22 1372.05 1266.78C1371.77 1265.33 1371.91 1263.83 1372.48 1262.47C1373.04 1261.11 1374 1259.94 1375.22 1259.12C1376.45 1258.31 1377.89 1257.87 1379.36 1257.87C1381.34 1257.87 1383.24 1258.65 1384.63 1260.05C1386.03 1261.45 1386.82 1263.34 1386.82 1265.32ZM1373.59 1265.32C1373.59 1266.46 1373.93 1267.58 1374.56 1268.53C1375.2 1269.48 1376.1 1270.22 1377.15 1270.66C1378.21 1271.09 1379.37 1271.21 1380.49 1270.98C1381.61 1270.76 1382.64 1270.21 1383.45 1269.4C1384.25 1268.6 1384.8 1267.57 1385.03 1266.45C1385.25 1265.33 1385.13 1264.17 1384.7 1263.11C1384.26 1262.06 1383.52 1261.15 1382.57 1260.52C1381.62 1259.89 1380.5 1259.55 1379.36 1259.55C1377.83 1259.55 1376.37 1260.16 1375.28 1261.24C1374.2 1262.32 1373.59 1263.79 1373.59 1265.32Z" fill="white" fill-opacity="0.5"/>
<path d="M264.807 1408.36C264.807 1409.84 264.37 1411.28 263.551 1412.51C262.732 1413.73 261.568 1414.69 260.206 1415.25C258.844 1415.81 257.345 1415.96 255.9 1415.67C254.454 1415.39 253.126 1414.68 252.083 1413.63C251.041 1412.59 250.331 1411.26 250.044 1409.82C249.756 1408.37 249.904 1406.87 250.468 1405.51C251.032 1404.15 251.987 1402.99 253.213 1402.17C254.438 1401.35 255.88 1400.91 257.354 1400.91C259.33 1400.91 261.226 1401.7 262.624 1403.09C264.022 1404.49 264.807 1406.39 264.807 1408.36ZM251.579 1408.36C251.579 1409.51 251.918 1410.62 252.552 1411.57C253.187 1412.52 254.089 1413.26 255.144 1413.7C256.199 1414.14 257.36 1414.25 258.48 1414.03C259.6 1413.81 260.629 1413.26 261.437 1412.45C262.244 1411.64 262.794 1410.61 263.017 1409.49C263.24 1408.37 263.126 1407.21 262.689 1406.15C262.252 1405.1 261.511 1404.2 260.562 1403.56C259.612 1402.93 258.496 1402.59 257.354 1402.59C255.823 1402.59 254.357 1403.2 253.275 1404.29C252.193 1405.37 251.583 1406.83 251.579 1408.36Z" fill="white" fill-opacity="0.5"/>
<path d="M219.55 173.677C219.55 176.597 218.684 179.452 217.061 181.88C215.439 184.308 213.133 186.201 210.435 187.318C207.737 188.436 204.768 188.728 201.904 188.159C199.039 187.589 196.408 186.183 194.343 184.118C192.278 182.053 190.872 179.422 190.302 176.557C189.733 173.693 190.025 170.724 191.143 168.026C192.26 165.328 194.153 163.022 196.581 161.4C199.009 159.777 201.864 158.911 204.784 158.911C208.7 158.911 212.456 160.467 215.225 163.236C217.994 166.005 219.55 169.761 219.55 173.677ZM193.344 173.677C193.344 175.939 194.015 178.151 195.272 180.033C196.529 181.914 198.316 183.38 200.406 184.246C202.497 185.112 204.797 185.338 207.016 184.897C209.235 184.456 211.274 183.366 212.873 181.766C214.473 180.166 215.563 178.128 216.004 175.909C216.446 173.689 216.219 171.389 215.353 169.299C214.487 167.209 213.021 165.422 211.14 164.165C209.259 162.908 207.047 162.237 204.784 162.237C201.753 162.246 198.848 163.454 196.705 165.597C194.561 167.741 193.353 170.645 193.344 173.677Z" fill="white" fill-opacity="0.5"/>
<path d="M1401.58 85.7666C1401.58 88.687 1400.72 91.5418 1399.09 93.97C1397.47 96.3981 1395.16 98.2907 1392.47 99.4083C1389.77 100.526 1386.8 100.818 1383.94 100.249C1381.07 99.6788 1378.44 98.2725 1376.38 96.2075C1374.31 94.1425 1372.9 91.5115 1372.33 88.6473C1371.76 85.783 1372.06 82.8142 1373.17 80.1161C1374.29 77.418 1376.18 75.112 1378.61 73.4895C1381.04 71.867 1383.9 71.0011 1386.82 71.0011C1390.73 71.0011 1394.49 72.5567 1397.26 75.3258C1400.03 78.0949 1401.58 81.8506 1401.58 85.7666ZM1375.38 85.7666C1375.38 88.0293 1376.05 90.2411 1377.3 92.1224C1378.56 94.0037 1380.35 95.47 1382.44 96.3358C1384.53 97.2017 1386.83 97.4282 1389.05 96.9868C1391.27 96.5454 1393.31 95.4559 1394.91 93.8559C1396.51 92.256 1397.59 90.2176 1398.04 87.9985C1398.48 85.7793 1398.25 83.4791 1397.39 81.3887C1396.52 79.2984 1395.05 77.5117 1393.17 76.2546C1391.29 74.9976 1389.08 74.3266 1386.82 74.3266C1383.78 74.3354 1380.88 75.5435 1378.74 77.687C1376.59 79.8305 1375.38 82.7353 1375.38 85.7666Z" fill="white" fill-opacity="0.5"/>
<path d="M469.457 820.146C469.457 821.62 469.02 823.061 468.201 824.287C467.382 825.513 466.218 826.468 464.856 827.032C463.494 827.596 461.995 827.744 460.549 827.456C459.104 827.169 457.776 826.459 456.733 825.417C455.691 824.374 454.981 823.046 454.694 821.6C454.406 820.155 454.554 818.656 455.118 817.294C455.682 815.932 456.637 814.768 457.863 813.949C459.088 813.13 460.529 812.693 462.004 812.693C463.98 812.693 465.876 813.478 467.274 814.876C468.671 816.274 469.457 818.17 469.457 820.146ZM456.229 820.146C456.229 821.288 456.568 822.405 457.202 823.355C457.837 824.304 458.739 825.044 459.794 825.481C460.849 825.918 462.01 826.033 463.13 825.81C464.25 825.587 465.279 825.037 466.087 824.23C466.894 823.422 467.444 822.393 467.667 821.273C467.89 820.153 467.776 818.992 467.339 817.937C466.901 816.881 466.161 815.98 465.212 815.345C464.262 814.71 463.146 814.372 462.004 814.372C460.473 814.376 459.007 814.986 457.925 816.068C456.843 817.15 456.233 818.616 456.229 820.146Z" fill="white" fill-opacity="0.5"/>
<path d="M1409.03 545.45C1409.03 546.924 1408.6 548.365 1407.78 549.591C1406.96 550.817 1405.8 551.772 1404.43 552.336C1403.07 552.9 1401.57 553.048 1400.13 552.76C1398.68 552.473 1397.35 551.763 1396.31 550.721C1395.27 549.678 1394.56 548.35 1394.27 546.904C1393.98 545.459 1394.13 543.96 1394.7 542.598C1395.26 541.236 1396.22 540.072 1397.44 539.253C1398.67 538.434 1400.11 537.997 1401.58 537.997C1403.56 537.997 1405.45 538.782 1406.85 540.18C1408.25 541.578 1409.03 543.474 1409.03 545.45ZM1395.81 545.45C1395.81 546.592 1396.15 547.709 1396.78 548.659C1397.41 549.608 1398.32 550.348 1399.37 550.785C1400.43 551.222 1401.59 551.337 1402.71 551.114C1403.83 550.891 1404.86 550.341 1405.66 549.534C1406.47 548.726 1407.02 547.697 1407.25 546.577C1407.47 545.457 1407.35 544.296 1406.92 543.241C1406.48 542.185 1405.74 541.283 1404.79 540.649C1403.84 540.014 1402.72 539.676 1401.58 539.676C1400.05 539.68 1398.59 540.29 1397.5 541.372C1396.42 542.454 1395.81 543.92 1395.81 545.45Z" fill="white" fill-opacity="0.5"/>
<path d="M161.894 1400.91C161.894 1402.39 161.457 1403.83 160.638 1405.05C159.819 1406.28 158.655 1407.23 157.293 1407.8C155.931 1408.36 154.433 1408.51 152.987 1408.22C151.541 1407.93 150.213 1407.22 149.171 1406.18C148.128 1405.14 147.419 1403.81 147.131 1402.37C146.843 1400.92 146.991 1399.42 147.555 1398.06C148.119 1396.7 149.075 1395.53 150.3 1394.71C151.526 1393.9 152.967 1393.46 154.441 1393.46C156.418 1393.46 158.313 1394.24 159.711 1395.64C161.109 1397.04 161.894 1398.93 161.894 1400.91ZM148.666 1400.91C148.666 1402.05 149.005 1403.17 149.64 1404.12C150.274 1405.07 151.176 1405.81 152.231 1406.25C153.286 1406.68 154.447 1406.8 155.568 1406.58C156.688 1406.35 157.717 1405.8 158.524 1404.99C159.332 1404.19 159.882 1403.16 160.105 1402.04C160.327 1400.92 160.213 1399.76 159.776 1398.7C159.339 1397.65 158.599 1396.74 157.649 1396.11C156.7 1395.48 155.583 1395.14 154.441 1395.14C152.911 1395.14 151.445 1395.75 150.363 1396.83C149.281 1397.92 148.671 1399.38 148.666 1400.91Z" fill="white" fill-opacity="0.5"/>
<path d="M1160.85 462.282C1160.85 464.655 1160.15 466.975 1158.83 468.948C1157.51 470.921 1155.64 472.459 1153.44 473.367C1151.25 474.275 1148.84 474.513 1146.51 474.05C1144.19 473.587 1142.05 472.444 1140.37 470.766C1138.69 469.088 1137.55 466.95 1137.09 464.623C1136.62 462.295 1136.86 459.883 1137.77 457.69C1138.68 455.498 1140.21 453.624 1142.19 452.306C1144.16 450.987 1146.48 450.284 1148.85 450.284C1152.04 450.284 1155.09 451.548 1157.34 453.798C1159.59 456.048 1160.85 459.1 1160.85 462.282ZM1139.56 462.282C1139.56 464.12 1140.1 465.918 1141.12 467.447C1142.15 468.975 1143.6 470.167 1145.3 470.87C1146.99 471.574 1148.86 471.758 1150.67 471.399C1152.47 471.041 1154.13 470.155 1155.43 468.855C1156.73 467.555 1157.61 465.899 1157.97 464.095C1158.33 462.292 1158.15 460.423 1157.44 458.724C1156.74 457.026 1155.55 455.574 1154.02 454.553C1152.49 453.531 1150.69 452.986 1148.85 452.986C1146.39 452.993 1144.03 453.975 1142.29 455.716C1140.55 457.458 1139.56 459.819 1139.56 462.282Z" fill="white" fill-opacity="0.5"/>
<path d="M1086.7 280.065L1082.19 288.026L1074.23 283.514C1073.61 283.165 1072.88 283.075 1072.2 283.264C1071.52 283.453 1070.94 283.905 1070.59 284.522C1070.24 285.139 1070.15 285.869 1070.34 286.552C1070.53 287.236 1070.98 287.816 1071.6 288.165L1079.56 292.676L1075.05 300.637C1074.7 301.254 1074.61 301.984 1074.79 302.667C1074.98 303.351 1075.44 303.931 1076.05 304.28C1076.67 304.63 1077.4 304.72 1078.08 304.531C1078.77 304.342 1079.35 303.889 1079.7 303.272L1084.21 295.312L1092.17 299.823C1092.78 300.172 1093.52 300.262 1094.2 300.073C1094.88 299.884 1095.46 299.432 1095.81 298.815C1096.16 298.198 1096.25 297.468 1096.06 296.785C1095.87 296.102 1095.42 295.521 1094.8 295.172L1086.84 290.661L1091.35 282.7C1091.7 282.083 1091.79 281.353 1091.6 280.67C1091.42 279.987 1090.96 279.406 1090.35 279.057C1089.73 278.707 1089 278.617 1088.32 278.806C1087.63 278.995 1087.05 279.448 1086.7 280.065V280.065Z" fill="white" fill-opacity="0.5"/>
<path d="M99.7877 668.167L95.2767 676.128L87.3158 671.617C86.699 671.268 85.9688 671.177 85.2856 671.366C84.6024 671.555 84.0222 672.008 83.6727 672.625C83.3233 673.241 83.2331 673.972 83.4221 674.655C83.6111 675.338 84.0637 675.918 84.6804 676.268L92.6414 680.779L88.1303 688.74C87.7808 689.356 87.6907 690.087 87.8797 690.77C88.0686 691.453 88.5213 692.033 89.138 692.383C89.7547 692.732 90.485 692.822 91.1682 692.633C91.8514 692.444 92.4316 691.992 92.781 691.375L97.2921 683.414L105.253 687.925C105.87 688.275 106.6 688.365 107.283 688.176C107.966 687.987 108.547 687.534 108.896 686.917C109.245 686.301 109.336 685.57 109.147 684.887C108.958 684.204 108.505 683.624 107.888 683.274L99.9274 678.763L104.438 670.802C104.788 670.186 104.878 669.455 104.689 668.772C104.5 668.089 104.047 667.509 103.431 667.159C102.814 666.81 102.084 666.72 101.401 666.909C100.717 667.098 100.137 667.55 99.7877 668.167V668.167Z" fill="white" fill-opacity="0.5"/>
<path d="M138.972 1202.17L136.747 1206.1L132.822 1203.87C132.518 1203.7 132.157 1203.66 131.82 1203.75C131.484 1203.84 131.197 1204.07 131.025 1204.37C130.853 1204.68 130.808 1205.04 130.902 1205.37C130.995 1205.71 131.218 1206 131.522 1206.17L135.448 1208.39L133.223 1212.32C133.051 1212.62 133.007 1212.98 133.1 1213.32C133.193 1213.66 133.416 1213.94 133.72 1214.11C134.024 1214.29 134.385 1214.33 134.721 1214.24C135.058 1214.14 135.344 1213.92 135.517 1213.62L137.741 1209.69L141.667 1211.92C141.971 1212.09 142.331 1212.13 142.668 1212.04C143.005 1211.95 143.291 1211.72 143.464 1211.42C143.636 1211.12 143.68 1210.76 143.587 1210.42C143.494 1210.08 143.271 1209.8 142.967 1209.62L139.041 1207.4L141.266 1203.47C141.438 1203.17 141.482 1202.81 141.389 1202.47C141.296 1202.13 141.073 1201.85 140.769 1201.68C140.464 1201.5 140.104 1201.46 139.767 1201.55C139.43 1201.65 139.144 1201.87 138.972 1202.17V1202.17Z" fill="white" fill-opacity="0.5"/>
<path d="M370.584 542.018L368.359 545.944L364.433 543.719C364.129 543.547 363.769 543.503 363.432 543.596C363.095 543.689 362.809 543.912 362.637 544.216C362.465 544.52 362.42 544.881 362.513 545.217C362.607 545.554 362.83 545.84 363.134 546.013L367.06 548.237L364.835 552.163C364.663 552.467 364.618 552.827 364.712 553.164C364.805 553.501 365.028 553.787 365.332 553.96C365.636 554.132 365.996 554.176 366.333 554.083C366.67 553.99 366.956 553.767 367.129 553.463L369.353 549.537L373.279 551.762C373.583 551.934 373.943 551.978 374.28 551.885C374.617 551.792 374.903 551.569 375.076 551.265C375.248 550.96 375.292 550.6 375.199 550.263C375.106 549.926 374.883 549.64 374.579 549.468L370.653 547.243L372.877 543.318C373.05 543.014 373.094 542.653 373.001 542.316C372.908 541.98 372.685 541.693 372.38 541.521C372.076 541.349 371.716 541.304 371.379 541.398C371.042 541.491 370.756 541.714 370.584 542.018V542.018Z" fill="white" fill-opacity="0.5"/>
<path d="M216.255 434.818L214.031 438.743L210.105 436.519C209.801 436.347 209.441 436.302 209.104 436.395C208.767 436.488 208.481 436.712 208.308 437.016C208.136 437.32 208.092 437.68 208.185 438.017C208.278 438.354 208.501 438.64 208.805 438.812L212.731 441.037L210.507 444.963C210.334 445.267 210.29 445.627 210.383 445.964C210.476 446.301 210.699 446.587 211.003 446.759C211.308 446.932 211.668 446.976 212.005 446.883C212.342 446.79 212.628 446.566 212.8 446.262L215.025 442.336L218.95 444.561C219.255 444.733 219.615 444.778 219.952 444.685C220.288 444.591 220.575 444.368 220.747 444.064C220.919 443.76 220.964 443.4 220.871 443.063C220.777 442.726 220.554 442.44 220.25 442.268L216.324 440.043L218.549 436.117C218.721 435.813 218.766 435.453 218.672 435.116C218.579 434.779 218.356 434.493 218.052 434.321C217.748 434.148 217.388 434.104 217.051 434.197C216.714 434.29 216.428 434.513 216.255 434.818V434.818Z" fill="white" fill-opacity="0.5"/>
<path d="M1312.37 1060C1312.37 1061.47 1311.94 1062.91 1311.12 1064.14C1310.3 1065.36 1309.14 1066.32 1307.77 1066.88C1306.41 1067.45 1304.91 1067.59 1303.47 1067.31C1302.02 1067.02 1300.69 1066.31 1299.65 1065.27C1298.61 1064.22 1297.9 1062.9 1297.61 1061.45C1297.32 1060 1297.47 1058.51 1298.04 1057.14C1298.6 1055.78 1299.55 1054.62 1300.78 1053.8C1302.01 1052.98 1303.45 1052.54 1304.92 1052.54C1306.9 1052.54 1308.79 1053.33 1310.19 1054.73C1311.59 1056.12 1312.37 1058.02 1312.37 1060ZM1299.15 1060C1299.15 1061.14 1299.49 1062.26 1300.12 1063.2C1300.75 1064.15 1301.66 1064.89 1302.71 1065.33C1303.77 1065.77 1304.93 1065.88 1306.05 1065.66C1307.17 1065.44 1308.2 1064.89 1309 1064.08C1309.81 1063.27 1310.36 1062.24 1310.58 1061.12C1310.81 1060 1310.69 1058.84 1310.26 1057.79C1309.82 1056.73 1309.08 1055.83 1308.13 1055.2C1307.18 1054.56 1306.06 1054.22 1304.92 1054.22C1303.39 1054.23 1301.92 1054.84 1300.84 1055.92C1299.76 1057 1299.15 1058.47 1299.15 1060Z" fill="white" fill-opacity="0.5"/>
<path d="M517.06 1442.21C517.06 1443.68 516.623 1445.12 515.804 1446.35C514.985 1447.57 513.821 1448.53 512.459 1449.09C511.097 1449.66 509.598 1449.8 508.152 1449.52C506.707 1449.23 505.379 1448.52 504.336 1447.48C503.294 1446.43 502.584 1445.11 502.297 1443.66C502.009 1442.21 502.157 1440.72 502.721 1439.35C503.285 1437.99 504.24 1436.83 505.466 1436.01C506.691 1435.19 508.132 1434.75 509.607 1434.75C511.583 1434.75 513.479 1435.54 514.877 1436.94C516.275 1438.33 517.06 1440.23 517.06 1442.21ZM503.832 1442.21C503.832 1443.35 504.171 1444.46 504.805 1445.41C505.44 1446.36 506.342 1447.1 507.397 1447.54C508.452 1447.98 509.613 1448.09 510.733 1447.87C511.853 1447.65 512.882 1447.1 513.69 1446.29C514.497 1445.48 515.047 1444.45 515.27 1443.33C515.493 1442.21 515.379 1441.05 514.942 1440C514.504 1438.94 513.764 1438.04 512.815 1437.4C511.865 1436.77 510.749 1436.43 509.607 1436.43C508.076 1436.44 506.61 1437.05 505.528 1438.13C504.446 1439.21 503.836 1440.68 503.832 1442.21Z" fill="white" fill-opacity="0.5"/>
<path d="M1420.44 823.83C1420.44 824.575 1420.22 825.304 1419.81 825.924C1419.39 826.544 1418.8 827.027 1418.11 827.313C1417.43 827.598 1416.67 827.673 1415.94 827.527C1415.2 827.382 1414.53 827.023 1414.01 826.495C1413.48 825.968 1413.12 825.297 1412.97 824.565C1412.83 823.834 1412.9 823.076 1413.19 822.387C1413.47 821.699 1413.96 821.11 1414.58 820.696C1415.2 820.281 1415.93 820.06 1416.67 820.06C1417.67 820.06 1418.63 820.457 1419.34 821.164C1420.04 821.871 1420.44 822.83 1420.44 823.83ZM1413.75 823.83C1413.75 824.408 1413.92 824.972 1414.24 825.453C1414.56 825.933 1415.02 826.307 1415.55 826.528C1416.09 826.749 1416.67 826.807 1417.24 826.694C1417.81 826.582 1418.33 826.304 1418.74 825.895C1419.15 825.487 1419.42 824.966 1419.54 824.4C1419.65 823.833 1419.59 823.246 1419.37 822.712C1419.15 822.179 1418.77 821.722 1418.29 821.401C1417.81 821.081 1417.25 820.909 1416.67 820.909C1415.9 820.912 1415.16 821.22 1414.61 821.767C1414.06 822.314 1413.75 823.056 1413.75 823.83Z" fill="white" fill-opacity="0.5"/>
<path d="M681.522 1471.3C681.522 1472.04 681.301 1472.77 680.886 1473.39C680.472 1474.01 679.884 1474.5 679.195 1474.78C678.506 1475.07 677.748 1475.14 677.017 1475C676.285 1474.85 675.614 1474.49 675.087 1473.96C674.559 1473.44 674.2 1472.76 674.055 1472.03C673.909 1471.3 673.984 1470.54 674.269 1469.86C674.555 1469.17 675.038 1468.58 675.658 1468.16C676.278 1467.75 677.007 1467.53 677.752 1467.53C678.752 1467.53 679.711 1467.93 680.418 1468.63C681.125 1469.34 681.522 1470.3 681.522 1471.3ZM674.831 1471.3C674.831 1471.88 675.003 1472.44 675.324 1472.92C675.645 1473.4 676.101 1473.78 676.634 1474C677.168 1474.22 677.755 1474.28 678.322 1474.16C678.888 1474.05 679.409 1473.77 679.817 1473.36C680.226 1472.95 680.504 1472.43 680.617 1471.87C680.729 1471.3 680.672 1470.71 680.45 1470.18C680.229 1469.65 679.855 1469.19 679.375 1468.87C678.894 1468.55 678.33 1468.38 677.752 1468.38C676.978 1468.38 676.237 1468.69 675.689 1469.24C675.142 1469.78 674.834 1470.52 674.831 1471.3Z" fill="white" fill-opacity="0.5"/>
</svg>
