<svg width="126" height="33" viewBox="0 0 126 33" fill="none" xmlns="http://www.w3.org/2000/svg">
<g clip-path="url(#clip0)">
<path d="M113.246 27.0187C118.571 27.0187 122.898 22.7121 122.898 17.4117C122.898 12.1113 118.571 7.80469 113.246 7.80469C107.92 7.80469 103.593 12.1113 103.593 17.4117C103.593 22.7121 107.92 27.0187 113.246 27.0187ZM113.246 10.1236C117.24 10.1236 120.485 13.3536 120.485 17.3289C120.485 21.3042 117.24 24.5341 113.246 24.5341C109.251 24.5341 106.006 21.3042 106.006 17.3289C106.006 13.3536 109.251 10.1236 113.246 10.1236Z" fill="#EAAD5F"/>
<path d="M125.729 17.4117C125.729 14.0989 124.398 10.9518 122.068 8.55005C121.069 7.55622 119.987 6.81085 118.822 6.23112C118.489 6.06548 118.073 6.23112 117.907 6.56239C117.74 6.89367 117.907 7.30777 118.24 7.4734C119.321 7.97032 120.32 8.71569 121.152 9.54388C123.233 11.6144 124.398 14.4302 124.398 17.4117C124.398 20.3932 123.233 23.209 121.152 25.2795C119.072 27.35 116.243 28.5095 113.247 28.5095C110.251 28.5095 107.422 27.35 105.341 25.2795C105.092 25.0311 104.676 25.0311 104.343 25.2795C104.093 25.528 104.093 25.9421 104.343 26.2733C106.59 28.5095 109.419 29.7517 112.581 29.9174V32.1535C112.581 32.5676 112.914 32.816 113.247 32.816C113.58 32.816 113.913 32.4848 113.913 32.1535V29.9174C116.991 29.7517 119.904 28.5095 122.151 26.2733C124.481 23.8716 125.729 20.7245 125.729 17.4117Z" fill="#747474"/>
<path d="M18.3812 1.8418H1.73829C0.989361 1.8418 0.40686 2.42153 0.40686 3.1669C0.40686 3.91227 0.989361 4.49201 1.73829 4.49201H8.56187V26.1906C8.56187 26.936 9.14437 27.5157 9.8933 27.5157H10.2262C10.9751 27.5157 11.5576 26.936 11.5576 26.1906V4.49201H18.3812C19.1301 4.49201 19.7126 3.91227 19.7126 3.1669C19.7126 2.42153 19.1301 1.8418 18.3812 1.8418Z" fill="#747474"/>
<path d="M32.9437 7.97021C32.6108 7.97021 32.278 7.97021 31.9451 7.97021C30.6969 7.97021 29.6151 8.30149 28.6165 8.96404C27.618 9.6266 26.7026 10.6204 26.0369 11.8627H25.8705L25.6208 9.46096C25.5376 8.79841 25.0383 8.30149 24.3726 8.30149C23.7069 8.30149 23.1244 8.88123 23.1244 9.54378V26.0248C23.1244 26.853 23.7901 27.5155 24.6222 27.5155C25.4544 27.5155 26.1201 26.853 26.1201 26.0248V17.1631C26.1201 15.2583 26.7026 13.6847 27.7844 12.4424C28.8662 11.2002 30.1976 10.5376 31.7787 10.5376C32.0283 10.5376 32.3612 10.5376 32.694 10.6204C33.3598 10.7032 33.9423 10.2063 34.1087 9.54378V9.37814C34.1919 8.63277 33.6926 7.97021 32.9437 7.97021Z" fill="#747474"/>
<path d="M45.1762 7.97021C44.0112 7.97021 42.9294 8.13585 41.7644 8.38431C41.0155 8.54995 40.3498 8.79841 39.684 9.04686C39.1015 9.29532 38.7687 9.95787 39.0183 10.6204V10.7032C39.268 11.283 39.9337 11.6143 40.5994 11.3658C42.1805 10.7032 43.6783 10.372 45.0098 10.372C46.4244 10.372 47.5062 10.7032 48.1719 11.4486C48.8376 12.194 49.1705 13.2706 49.1705 14.7614V15.9209L45.9251 16.0037C39.684 16.1693 36.6051 18.2398 36.6051 22.1323C36.6051 23.9543 37.1876 25.3622 38.2694 26.3561C39.3512 27.3499 40.849 27.8468 42.763 27.8468C44.1776 27.8468 45.4258 27.5983 46.3412 27.1842C47.3398 26.7702 48.2551 25.942 49.2537 24.6997H49.4201L49.8362 26.5217C49.9194 27.1014 50.4187 27.4327 51.0012 27.4327C51.6669 27.4327 52.1662 26.9358 52.1662 26.2732V14.3473C52.1662 12.1112 51.5837 10.4548 50.5019 9.46096C49.1705 8.46713 47.5062 7.97021 45.1762 7.97021ZM49.004 19.7305C49.004 21.5526 48.5048 22.8777 47.423 23.8715C46.3412 24.8653 44.9265 25.3622 43.0958 25.3622C41.9308 25.3622 41.0155 25.1138 40.433 24.534C39.7672 23.9543 39.4344 23.2089 39.4344 22.1323C39.4344 20.8072 39.9337 19.8133 41.0155 19.1508C42.014 18.4882 43.7615 18.157 46.0083 18.0741L48.9208 17.9913V19.7305H49.004Z" fill="#747474"/>
<path d="M70.8062 8.2188C70.1405 8.2188 69.6412 8.55008 69.4748 9.12982C67.228 15.1756 65.8134 19.0681 65.1476 20.9729C64.4819 22.9606 64.0659 24.2029 63.8994 24.7826H63.733C63.5666 23.9544 62.9841 22.2152 62.0687 19.565L58.2409 9.12982C57.9912 8.55008 57.4919 8.13599 56.9094 8.13599C55.9109 8.13599 55.1619 9.12982 55.578 10.1236L61.5694 25.8593C61.9023 26.8531 62.8176 27.4328 63.8994 27.4328C64.9812 27.4328 65.8134 26.7703 66.2294 25.8593L72.2209 10.2065C72.5537 9.29545 71.888 8.2188 70.8062 8.2188Z" fill="#747474"/>
<path d="M83.4549 7.88745C80.8753 7.88745 78.7949 8.79846 77.297 10.6205C75.7992 12.4425 74.967 14.9271 74.967 17.9914C74.967 21.0557 75.7992 23.4574 77.4635 25.1966C79.1278 26.9358 81.3745 27.764 84.2038 27.764C85.5353 27.764 86.6171 27.6812 87.5324 27.5156C88.1981 27.3499 88.9471 27.1843 89.6128 26.853C90.1121 26.6874 90.4449 26.1905 90.4449 25.6936C90.4449 24.8654 89.6128 24.2856 88.7806 24.5341C87.2828 25.031 85.7849 25.1966 84.2038 25.1966C82.2067 25.1966 80.7088 24.6169 79.627 23.4574C78.5453 22.298 77.9628 20.5588 77.8795 18.3227H90.2785C90.861 18.3227 91.3603 17.8257 91.3603 17.246V16.5006C91.3603 13.9332 90.6946 11.7799 89.2799 10.2064C87.8653 8.63282 85.8681 7.88745 83.4549 7.88745ZM78.1292 16.0037C78.2956 14.2645 78.8781 12.8566 79.7935 11.8628C80.7088 10.8689 81.9571 10.372 83.5381 10.372C85.036 10.372 86.201 10.8689 87.0331 11.8628C87.8653 12.8566 88.2813 14.2645 88.2813 16.0865H78.1292V16.0037Z" fill="#747474"/>
<path d="M97.7678 0.185303C96.9356 0.185303 96.2699 0.847855 96.2699 1.67605V26.0249C96.2699 26.853 96.9356 27.5156 97.7678 27.5156C98.5999 27.5156 99.2656 26.853 99.2656 26.0249V1.67605C99.2656 0.847855 98.5999 0.185303 97.7678 0.185303Z" fill="#747474"/>
</g>
<defs>
<clipPath id="clip0">
<rect width="125.321" height="32.6307" fill="white" transform="translate(0.40686 0.185303)"/>
</clipPath>
</defs>
</svg>
